<?xml version="1.0" encoding="UTF-8" standalone="no"?><svg xmlns="http://www.w3.org/2000/svg" xmlns:xlink="http://www.w3.org/1999/xlink" contentScriptType="application/ecmascript" contentStyleType="text/css" height="322px" preserveAspectRatio="none" style="width:1095px;height:322px;" version="1.1" viewBox="0 0 1095 322" width="1095px" zoomAndPan="magnify"><defs><filter height="300%" id="f1ahs2wk6zp2l3" width="300%" x="-1" y="-1"><feGaussianBlur result="blurOut" stdDeviation="2.0"/><feColorMatrix in="blurOut" result="blurOut2" type="matrix" values="0 0 0 0 0 0 0 0 0 0 0 0 0 0 0 0 0 0 .4 0"/><feOffset dx="4.0" dy="4.0" in="blurOut2" result="blurOut3"/><feBlend in="SourceGraphic" in2="blurOut3" mode="normal"/></filter></defs><g><!--MD5=[536fe7577e8cf19597ee85886b82cd6a]
class AbstractFactory--><rect fill="#FEFECE" filter="url(#f1ahs2wk6zp2l3)" height="73.6094" id="AbstractFactory" style="stroke: #A80036; stroke-width: 1.5;" width="132" x="479" y="104"/><ellipse cx="494.45" cy="120" fill="#A9DCDF" rx="11" ry="11" style="stroke: #A80036; stroke-width: 1.0;"/><path d="M494.5594,115.3438 L493.4031,120.4219 L495.7313,120.4219 L494.5594,115.3438 Z M493.075,113.1094 L496.0594,113.1094 L499.4188,125.5 L496.9656,125.5 L496.2,122.4375 L492.9188,122.4375 L492.1688,125.5 L489.7313,125.5 L493.075,113.1094 Z "/><text fill="#000000" font-family="sans-serif" font-size="12" font-style="italic" lengthAdjust="spacingAndGlyphs" textLength="99" x="508.55" y="124.1543">AbstractFactory</text><line style="stroke: #A80036; stroke-width: 1.5;" x1="480" x2="610" y1="136" y2="136"/><line style="stroke: #A80036; stroke-width: 1.5;" x1="480" x2="610" y1="144" y2="144"/><ellipse cx="490" cy="155" fill="#84BE84" rx="3" ry="3" style="stroke: #038048; stroke-width: 1.0;"/><text fill="#000000" font-family="sans-serif" font-size="11" font-style="italic" lengthAdjust="spacingAndGlyphs" textLength="106" x="499" y="158.2104">create_product_a()</text><ellipse cx="490" cy="167.8047" fill="#84BE84" rx="3" ry="3" style="stroke: #038048; stroke-width: 1.0;"/><text fill="#000000" font-family="sans-serif" font-size="11" font-style="italic" lengthAdjust="spacingAndGlyphs" textLength="106" x="499" y="171.0151">create_product_b()</text><!--MD5=[40032afdf3b7ba11206d848f1b965299]
class ConcreteFactory1--><rect fill="#FEFECE" filter="url(#f1ahs2wk6zp2l3)" height="73.6094" id="ConcreteFactory1" style="stroke: #A80036; stroke-width: 1.5;" width="143" x="562.5" y="238"/><ellipse cx="577.5" cy="254" fill="#ADD1B2" rx="11" ry="11" style="stroke: #A80036; stroke-width: 1.0;"/><path d="M580.4688,259.6406 Q579.8906,259.9375 579.25,260.0781 Q578.6094,260.2344 577.9063,260.2344 Q575.4063,260.2344 574.0781,258.5938 Q572.7656,256.9375 572.7656,253.8125 Q572.7656,250.6875 574.0781,249.0313 Q575.4063,247.375 577.9063,247.375 Q578.6094,247.375 579.25,247.5313 Q579.9063,247.6875 580.4688,247.9844 L580.4688,250.7031 Q579.8438,250.125 579.25,249.8594 Q578.6563,249.5781 578.0313,249.5781 Q576.6875,249.5781 576,250.6563 Q575.3125,251.7188 575.3125,253.8125 Q575.3125,255.9063 576,256.9844 Q576.6875,258.0469 578.0313,258.0469 Q578.6563,258.0469 579.25,257.7813 Q579.8438,257.5 580.4688,256.9219 L580.4688,259.6406 Z "/><text fill="#000000" font-family="sans-serif" font-size="12" lengthAdjust="spacingAndGlyphs" textLength="111" x="591.5" y="258.1543">ConcreteFactory1</text><line style="stroke: #A80036; stroke-width: 1.5;" x1="563.5" x2="704.5" y1="270" y2="270"/><line style="stroke: #A80036; stroke-width: 1.5;" x1="563.5" x2="704.5" y1="278" y2="278"/><ellipse cx="573.5" cy="289" fill="#84BE84" rx="3" ry="3" style="stroke: #038048; stroke-width: 1.0;"/><text fill="#000000" font-family="sans-serif" font-size="11" lengthAdjust="spacingAndGlyphs" textLength="106" x="582.5" y="292.2104">create_product_a()</text><ellipse cx="573.5" cy="301.8047" fill="#84BE84" rx="3" ry="3" style="stroke: #038048; stroke-width: 1.0;"/><text fill="#000000" font-family="sans-serif" font-size="11" lengthAdjust="spacingAndGlyphs" textLength="106" x="582.5" y="305.0151">create_product_b()</text><!--MD5=[e7b84ce2505fe77d924ba186871d0b8b]
class ConcreteFactory2--><rect fill="#FEFECE" filter="url(#f1ahs2wk6zp2l3)" height="73.6094" id="ConcreteFactory2" style="stroke: #A80036; stroke-width: 1.5;" width="143" x="384.5" y="238"/><ellipse cx="399.5" cy="254" fill="#ADD1B2" rx="11" ry="11" style="stroke: #A80036; stroke-width: 1.0;"/><path d="M402.4688,259.6406 Q401.8906,259.9375 401.25,260.0781 Q400.6094,260.2344 399.9063,260.2344 Q397.4063,260.2344 396.0781,258.5938 Q394.7656,256.9375 394.7656,253.8125 Q394.7656,250.6875 396.0781,249.0313 Q397.4063,247.375 399.9063,247.375 Q400.6094,247.375 401.25,247.5313 Q401.9063,247.6875 402.4688,247.9844 L402.4688,250.7031 Q401.8438,250.125 401.25,249.8594 Q400.6563,249.5781 400.0313,249.5781 Q398.6875,249.5781 398,250.6563 Q397.3125,251.7188 397.3125,253.8125 Q397.3125,255.9063 398,256.9844 Q398.6875,258.0469 400.0313,258.0469 Q400.6563,258.0469 401.25,257.7813 Q401.8438,257.5 402.4688,256.9219 L402.4688,259.6406 Z "/><text fill="#000000" font-family="sans-serif" font-size="12" lengthAdjust="spacingAndGlyphs" textLength="111" x="413.5" y="258.1543">ConcreteFactory2</text><line style="stroke: #A80036; stroke-width: 1.5;" x1="385.5" x2="526.5" y1="270" y2="270"/><line style="stroke: #A80036; stroke-width: 1.5;" x1="385.5" x2="526.5" y1="278" y2="278"/><ellipse cx="395.5" cy="289" fill="#84BE84" rx="3" ry="3" style="stroke: #038048; stroke-width: 1.0;"/><text fill="#000000" font-family="sans-serif" font-size="11" lengthAdjust="spacingAndGlyphs" textLength="106" x="404.5" y="292.2104">create_product_a()</text><ellipse cx="395.5" cy="301.8047" fill="#84BE84" rx="3" ry="3" style="stroke: #038048; stroke-width: 1.0;"/><text fill="#000000" font-family="sans-serif" font-size="11" lengthAdjust="spacingAndGlyphs" textLength="106" x="404.5" y="305.0151">create_product_b()</text><!--MD5=[06b8f8cffd7975d9bab77ad64b593d4b]
class AbstractProductA--><rect fill="#FEFECE" filter="url(#f1ahs2wk6zp2l3)" height="48" id="AbstractProductA" style="stroke: #A80036; stroke-width: 1.5;" width="140" x="748" y="117"/><ellipse cx="763" cy="133" fill="#A9DCDF" rx="11" ry="11" style="stroke: #A80036; stroke-width: 1.0;"/><path d="M763.1094,128.3438 L761.9531,133.4219 L764.2813,133.4219 L763.1094,128.3438 Z M761.625,126.1094 L764.6094,126.1094 L767.9688,138.5 L765.5156,138.5 L764.75,135.4375 L761.4688,135.4375 L760.7188,138.5 L758.2813,138.5 L761.625,126.1094 Z "/><text fill="#000000" font-family="sans-serif" font-size="12" font-style="italic" lengthAdjust="spacingAndGlyphs" textLength="108" x="777" y="137.1543">AbstractProductA</text><line style="stroke: #A80036; stroke-width: 1.5;" x1="749" x2="887" y1="149" y2="149"/><line style="stroke: #A80036; stroke-width: 1.5;" x1="749" x2="887" y1="157" y2="157"/><!--MD5=[fec2a37aa0b7b2849bc60ada13af5351]
class AbstractProductB--><rect fill="#FEFECE" filter="url(#f1ahs2wk6zp2l3)" height="48" id="AbstractProductB" style="stroke: #A80036; stroke-width: 1.5;" width="140" x="202" y="117"/><ellipse cx="217" cy="133" fill="#A9DCDF" rx="11" ry="11" style="stroke: #A80036; stroke-width: 1.0;"/><path d="M217.1094,128.3438 L215.9531,133.4219 L218.2813,133.4219 L217.1094,128.3438 Z M215.625,126.1094 L218.6094,126.1094 L221.9688,138.5 L219.5156,138.5 L218.75,135.4375 L215.4688,135.4375 L214.7188,138.5 L212.2813,138.5 L215.625,126.1094 Z "/><text fill="#000000" font-family="sans-serif" font-size="12" font-style="italic" lengthAdjust="spacingAndGlyphs" textLength="108" x="231" y="137.1543">AbstractProductB</text><line style="stroke: #A80036; stroke-width: 1.5;" x1="203" x2="341" y1="149" y2="149"/><line style="stroke: #A80036; stroke-width: 1.5;" x1="203" x2="341" y1="157" y2="157"/><!--MD5=[efffd83d43e6431741e2335b50ea90b5]
class ConcreteProductA1--><rect fill="#FEFECE" filter="url(#f1ahs2wk6zp2l3)" height="48" id="ConcreteProductA1" style="stroke: #A80036; stroke-width: 1.5;" width="154" x="930" y="251"/><ellipse cx="945" cy="267" fill="#ADD1B2" rx="11" ry="11" style="stroke: #A80036; stroke-width: 1.0;"/><path d="M947.9688,272.6406 Q947.3906,272.9375 946.75,273.0781 Q946.1094,273.2344 945.4063,273.2344 Q942.9063,273.2344 941.5781,271.5938 Q940.2656,269.9375 940.2656,266.8125 Q940.2656,263.6875 941.5781,262.0313 Q942.9063,260.375 945.4063,260.375 Q946.1094,260.375 946.75,260.5313 Q947.4063,260.6875 947.9688,260.9844 L947.9688,263.7031 Q947.3438,263.125 946.75,262.8594 Q946.1563,262.5781 945.5313,262.5781 Q944.1875,262.5781 943.5,263.6563 Q942.8125,264.7188 942.8125,266.8125 Q942.8125,268.9063 943.5,269.9844 Q944.1875,271.0469 945.5313,271.0469 Q946.1563,271.0469 946.75,270.7813 Q947.3438,270.5 947.9688,269.9219 L947.9688,272.6406 Z "/><text fill="#000000" font-family="sans-serif" font-size="12" lengthAdjust="spacingAndGlyphs" textLength="122" x="959" y="271.1543">ConcreteProductA1</text><line style="stroke: #A80036; stroke-width: 1.5;" x1="931" x2="1083" y1="283" y2="283"/><line style="stroke: #A80036; stroke-width: 1.5;" x1="931" x2="1083" y1="291" y2="291"/><!--MD5=[a301e99f5d7f05c3efa2fd59fba64b1d]
class ConcreteProductA2--><rect fill="#FEFECE" filter="url(#f1ahs2wk6zp2l3)" height="48" id="ConcreteProductA2" style="stroke: #A80036; stroke-width: 1.5;" width="154" x="741" y="251"/><ellipse cx="756" cy="267" fill="#ADD1B2" rx="11" ry="11" style="stroke: #A80036; stroke-width: 1.0;"/><path d="M758.9688,272.6406 Q758.3906,272.9375 757.75,273.0781 Q757.1094,273.2344 756.4063,273.2344 Q753.9063,273.2344 752.5781,271.5938 Q751.2656,269.9375 751.2656,266.8125 Q751.2656,263.6875 752.5781,262.0313 Q753.9063,260.375 756.4063,260.375 Q757.1094,260.375 757.75,260.5313 Q758.4063,260.6875 758.9688,260.9844 L758.9688,263.7031 Q758.3438,263.125 757.75,262.8594 Q757.1563,262.5781 756.5313,262.5781 Q755.1875,262.5781 754.5,263.6563 Q753.8125,264.7188 753.8125,266.8125 Q753.8125,268.9063 754.5,269.9844 Q755.1875,271.0469 756.5313,271.0469 Q757.1563,271.0469 757.75,270.7813 Q758.3438,270.5 758.9688,269.9219 L758.9688,272.6406 Z "/><text fill="#000000" font-family="sans-serif" font-size="12" lengthAdjust="spacingAndGlyphs" textLength="122" x="770" y="271.1543">ConcreteProductA2</text><line style="stroke: #A80036; stroke-width: 1.5;" x1="742" x2="894" y1="283" y2="283"/><line style="stroke: #A80036; stroke-width: 1.5;" x1="742" x2="894" y1="291" y2="291"/><!--MD5=[ccc9648fb3668bb6886d3d77dc84e0ea]
class ConcreteProductB1--><rect fill="#FEFECE" filter="url(#f1ahs2wk6zp2l3)" height="48" id="ConcreteProductB1" style="stroke: #A80036; stroke-width: 1.5;" width="154" x="195" y="251"/><ellipse cx="210" cy="267" fill="#ADD1B2" rx="11" ry="11" style="stroke: #A80036; stroke-width: 1.0;"/><path d="M212.9688,272.6406 Q212.3906,272.9375 211.75,273.0781 Q211.1094,273.2344 210.4063,273.2344 Q207.9063,273.2344 206.5781,271.5938 Q205.2656,269.9375 205.2656,266.8125 Q205.2656,263.6875 206.5781,262.0313 Q207.9063,260.375 210.4063,260.375 Q211.1094,260.375 211.75,260.5313 Q212.4063,260.6875 212.9688,260.9844 L212.9688,263.7031 Q212.3438,263.125 211.75,262.8594 Q211.1563,262.5781 210.5313,262.5781 Q209.1875,262.5781 208.5,263.6563 Q207.8125,264.7188 207.8125,266.8125 Q207.8125,268.9063 208.5,269.9844 Q209.1875,271.0469 210.5313,271.0469 Q211.1563,271.0469 211.75,270.7813 Q212.3438,270.5 212.9688,269.9219 L212.9688,272.6406 Z "/><text fill="#000000" font-family="sans-serif" font-size="12" lengthAdjust="spacingAndGlyphs" textLength="122" x="224" y="271.1543">ConcreteProductB1</text><line style="stroke: #A80036; stroke-width: 1.5;" x1="196" x2="348" y1="283" y2="283"/><line style="stroke: #A80036; stroke-width: 1.5;" x1="196" x2="348" y1="291" y2="291"/><!--MD5=[c0842759aa63aec64a49d9952445a71c]
class ConcreteProductB2--><rect fill="#FEFECE" filter="url(#f1ahs2wk6zp2l3)" height="48" id="ConcreteProductB2" style="stroke: #A80036; stroke-width: 1.5;" width="154" x="6" y="251"/><ellipse cx="21" cy="267" fill="#ADD1B2" rx="11" ry="11" style="stroke: #A80036; stroke-width: 1.0;"/><path d="M23.9688,272.6406 Q23.3906,272.9375 22.75,273.0781 Q22.1094,273.2344 21.4063,273.2344 Q18.9063,273.2344 17.5781,271.5938 Q16.2656,269.9375 16.2656,266.8125 Q16.2656,263.6875 17.5781,262.0313 Q18.9063,260.375 21.4063,260.375 Q22.1094,260.375 22.75,260.5313 Q23.4063,260.6875 23.9688,260.9844 L23.9688,263.7031 Q23.3438,263.125 22.75,262.8594 Q22.1563,262.5781 21.5313,262.5781 Q20.1875,262.5781 19.5,263.6563 Q18.8125,264.7188 18.8125,266.8125 Q18.8125,268.9063 19.5,269.9844 Q20.1875,271.0469 21.5313,271.0469 Q22.1563,271.0469 22.75,270.7813 Q23.3438,270.5 23.9688,269.9219 L23.9688,272.6406 Z "/><text fill="#000000" font-family="sans-serif" font-size="12" lengthAdjust="spacingAndGlyphs" textLength="122" x="35" y="271.1543">ConcreteProductB2</text><line style="stroke: #A80036; stroke-width: 1.5;" x1="7" x2="159" y1="283" y2="283"/><line style="stroke: #A80036; stroke-width: 1.5;" x1="7" x2="159" y1="291" y2="291"/><!--MD5=[0ba5ee7700168656dc1b457c6fe9fdac]
entity Client--><rect fill="#FEFECE" filter="url(#f1ahs2wk6zp2l3)" height="36.2969" style="stroke: #000000; stroke-width: 1.5;" width="59" x="515.5" y="8"/><text fill="#000000" font-family="sans-serif" font-size="14" lengthAdjust="spacingAndGlyphs" textLength="39" x="525.5" y="30.9951">Client</text><!--MD5=[15691c60f69ade7ab27025951f4ef3e9]
link Client to AbstractFactory--><path d="M545,44.16 C545,58.61 545,79.87 545,98.7 " fill="none" id="Client-&gt;AbstractFactory" style="stroke: #A80036; stroke-width: 1.0;"/><polygon fill="#A80036" points="545,103.94,549,94.94,545,98.94,541,94.94,545,103.94" style="stroke: #A80036; stroke-width: 1.0;"/><!--MD5=[c9571c80b66b5193675f6e163ba79106]
link Client to AbstractProductA--><path d="M574.74,39.31 C618.42,57.39 700.89,91.53 757.61,115 " fill="none" id="Client-&gt;AbstractProductA" style="stroke: #A80036; stroke-width: 1.0;"/><polygon fill="#A80036" points="762.33,116.96,755.5498,109.8166,757.7117,115.044,752.4842,117.2059,762.33,116.96" style="stroke: #A80036; stroke-width: 1.0;"/><!--MD5=[2444ae5daa09210d7f8a5398c3451718]
link Client to AbstractProductB--><path d="M515.26,39.31 C471.58,57.39 389.11,91.53 332.39,115 " fill="none" id="Client-&gt;AbstractProductB" style="stroke: #A80036; stroke-width: 1.0;"/><polygon fill="#A80036" points="327.67,116.96,337.5158,117.2059,332.2883,115.044,334.4502,109.8166,327.67,116.96" style="stroke: #A80036; stroke-width: 1.0;"/><!--MD5=[9018e0955d38dbd9e62dbfca1665ce89]
reverse link AbstractFactory to ConcreteFactory1--><path d="M580.76,195.04 C590.48,209.46 600.78,224.74 609.71,237.97 " fill="none" id="AbstractFactory&lt;-ConcreteFactory1" style="stroke: #A80036; stroke-width: 1.0;"/><polygon fill="none" points="574.7,198.57,569.32,178.07,586.3,190.74,574.7,198.57" style="stroke: #A80036; stroke-width: 1.0;"/><!--MD5=[aab0ea147590dfe62c7baf5a65e399fb]
reverse link AbstractFactory to ConcreteFactory2--><path d="M509.24,195.04 C499.52,209.46 489.22,224.74 480.29,237.97 " fill="none" id="AbstractFactory&lt;-ConcreteFactory2" style="stroke: #A80036; stroke-width: 1.0;"/><polygon fill="none" points="503.7,190.74,520.68,178.07,515.3,198.57,503.7,190.74" style="stroke: #A80036; stroke-width: 1.0;"/><!--MD5=[5cb60cb31dea494ba5632e735e126217]
reverse link AbstractProductA to ConcreteProductA1--><path d="M867.88,176.83 C901.41,200.25 944.67,230.46 973.98,250.94 " fill="none" id="AbstractProductA&lt;-ConcreteProductA1" style="stroke: #A80036; stroke-width: 1.0;"/><polygon fill="none" points="863.74,182.49,851.35,165.3,871.76,171.01,863.74,182.49" style="stroke: #A80036; stroke-width: 1.0;"/><!--MD5=[efb5a7b289a2e0c05a279d6b2a2e88c1]
reverse link AbstractProductA to ConcreteProductA2--><path d="M818,185.47 C818,207.32 818,232.91 818,250.94 " fill="none" id="AbstractProductA&lt;-ConcreteProductA2" style="stroke: #A80036; stroke-width: 1.0;"/><polygon fill="none" points="811,185.3,818,165.3,825,185.3,811,185.3" style="stroke: #A80036; stroke-width: 1.0;"/><!--MD5=[fd225be1e57ce7b7ed9812beb982677e]
reverse link AbstractProductB to ConcreteProductB1--><path d="M272,185.47 C272,207.32 272,232.91 272,250.94 " fill="none" id="AbstractProductB&lt;-ConcreteProductB1" style="stroke: #A80036; stroke-width: 1.0;"/><polygon fill="none" points="265,185.3,272,165.3,279,185.3,265,185.3" style="stroke: #A80036; stroke-width: 1.0;"/><!--MD5=[fcf1799001cadeda7d0c4c73ce4cd2be]
reverse link AbstractProductB to ConcreteProductB2--><path d="M222.12,176.83 C188.59,200.25 145.33,230.46 116.02,250.94 " fill="none" id="AbstractProductB&lt;-ConcreteProductB2" style="stroke: #A80036; stroke-width: 1.0;"/><polygon fill="none" points="218.24,171.01,238.65,165.3,226.26,182.49,218.24,171.01" style="stroke: #A80036; stroke-width: 1.0;"/><!--MD5=[9c4bb45fc06bdf22e7d3c4edf1cea559]
link ConcreteFactory1 to ConcreteProductA1--><path d="M680.75,237.95 C698.7,225.94 720.04,214.14 741.5,208 C807.3,189.17 829.55,189.71 895.5,208 C923.65,215.81 951.83,232.84 972.81,247.77 " fill="none" id="ConcreteFactory1-&gt;ConcreteProductA1" style="stroke: #A80036; stroke-width: 1.0; stroke-dasharray: 7.0,7.0;"/><polygon fill="#A80036" points="976.91,250.73,971.9537,242.2191,972.8559,247.8036,967.2714,248.7058,976.91,250.73" style="stroke: #A80036; stroke-width: 1.0;"/><!--MD5=[ddda78df9ee821bbecf896d76e1882f5]
reverse link ConcreteProductB1 to ConcreteFactory1--><path d="M306.53,247.77 C327.72,232.83 356.14,215.8 384.5,208 C445.78,191.14 466.43,190.39 527.5,208 C548.8,214.14 569.96,225.95 587.73,237.96 " fill="none" id="ConcreteProductB1&lt;-ConcreteFactory1" style="stroke: #A80036; stroke-width: 1.0; stroke-dasharray: 7.0,7.0;"/><polygon fill="#A80036" points="302.39,250.72,312.0366,248.7342,306.4558,247.8098,307.3802,242.229,302.39,250.72" style="stroke: #A80036; stroke-width: 1.0;"/><!--MD5=[991213708841a5c9fe0672602b83fb71]
link ConcreteFactory2 to ConcreteProductA2--><path d="M502.27,237.96 C520.04,225.95 541.2,214.14 562.5,208 C623.57,190.39 644.22,191.14 705.5,208 C733.86,215.8 762.28,232.83 783.47,247.77 " fill="none" id="ConcreteFactory2-&gt;ConcreteProductA2" style="stroke: #A80036; stroke-width: 1.0; stroke-dasharray: 7.0,7.0;"/><polygon fill="#A80036" points="787.61,250.72,782.6198,242.229,783.5442,247.8098,777.9634,248.7342,787.61,250.72" style="stroke: #A80036; stroke-width: 1.0;"/><!--MD5=[eda72abefdb0a97736f555fe7f68d2ac]
reverse link ConcreteProductB2 to ConcreteFactory2--><path d="M117.19,247.77 C138.17,232.84 166.35,215.81 194.5,208 C260.45,189.71 282.7,189.17 348.5,208 C369.96,214.14 391.3,225.94 409.25,237.95 " fill="none" id="ConcreteProductB2&lt;-ConcreteFactory2" style="stroke: #A80036; stroke-width: 1.0; stroke-dasharray: 7.0,7.0;"/><polygon fill="#A80036" points="113.09,250.73,122.7286,248.7058,117.1441,247.8036,118.0463,242.2191,113.09,250.73" style="stroke: #A80036; stroke-width: 1.0;"/><!--MD5=[99fbe5c2af253479fcb0f5bd33e2f5e5]
@startuml abstract_factory
allowmixing

abstract class AbstractFactory {
  {abstract} +create_product_a()
  {abstract} +create_product_b()
}

class ConcreteFactory1 {
  +create_product_a()
  +create_product_b()
}

class ConcreteFactory2 {
  +create_product_a()
  +create_product_b()
}

abstract class AbstractProductA {
}

abstract class AbstractProductB {
}

class ConcreteProductA1 {
}

class ConcreteProductA2 {
}

class ConcreteProductB1 {
}

class ConcreteProductB2 {
}



rectangle Client

Client - -> AbstractFactory
Client - -> AbstractProductA
Client - -> AbstractProductB

AbstractFactory <|-down- ConcreteFactory1
AbstractFactory <|-down- ConcreteFactory2
AbstractProductA <|-down- ConcreteProductA1
AbstractProductA <|-down- ConcreteProductA2
AbstractProductB <|-down- ConcreteProductB1
AbstractProductB <|-down- ConcreteProductB2
ConcreteFactory1 .right.> ConcreteProductA1
ConcreteFactory1 .left.> ConcreteProductB1
ConcreteFactory2 .right.> ConcreteProductA2
ConcreteFactory2 .left.> ConcreteProductB2
@enduml

PlantUML version 1.2020.02(Sun Mar 01 11:22:07 CET 2020)
(GPL source distribution)
Java Runtime: Java(TM) SE Runtime Environment
JVM: Java HotSpot(TM) 64-Bit Server VM
Java Version: 19.0.1+10-21
Operating System: Linux
Default Encoding: UTF-8
Language: en
Country: US
--></g></svg>