<?xml version="1.0" encoding="UTF-8" standalone="no"?><svg xmlns="http://www.w3.org/2000/svg" xmlns:xlink="http://www.w3.org/1999/xlink" contentScriptType="application/ecmascript" contentStyleType="text/css" height="166px" preserveAspectRatio="none" style="width:551px;height:166px;" version="1.1" viewBox="0 0 551 166" width="551px" zoomAndPan="magnify"><defs><filter height="300%" id="f19ibb27v988q6" width="300%" x="-1" y="-1"><feGaussianBlur result="blurOut" stdDeviation="2.0"/><feColorMatrix in="blurOut" result="blurOut2" type="matrix" values="0 0 0 0 0 0 0 0 0 0 0 0 0 0 0 0 0 0 .4 0"/><feOffset dx="4.0" dy="4.0" in="blurOut2" result="blurOut3"/><feBlend in="SourceGraphic" in2="blurOut3" mode="normal"/></filter></defs><g><rect fill="#FEFECE" filter="url(#f19ibb27v988q6)" height="49.25" style="stroke: #A80036; stroke-width: 1.5;" width="157" x="6" y="8"/><text fill="#000000" font-family="sans-serif" font-size="12" lengthAdjust="spacingAndGlyphs" textLength="72" x="48.5" y="21.1387">Abstraction</text><line style="stroke: #A80036; stroke-width: 1.5;" x1="7" x2="162" y1="25.9688" y2="25.9688"/><rect fill="none" height="6" style="stroke: #C82930; stroke-width: 1.0;" width="6" x="14" y="33.9688"/><text fill="#000000" font-family="sans-serif" font-size="10" lengthAdjust="spacingAndGlyphs" textLength="131" x="26" y="39.251">implementor: Implementor</text><ellipse cx="17" cy="48.6094" fill="none" rx="3" ry="3" style="stroke: #038048; stroke-width: 1.0;"/><text fill="#000000" font-family="sans-serif" font-size="10" lengthAdjust="spacingAndGlyphs" textLength="57" x="26" y="50.8916">operation():</text><rect fill="#FEFECE" filter="url(#f19ibb27v988q6)" height="37.6094" style="stroke: #A80036; stroke-width: 1.5;" width="133" x="18" y="118"/><text fill="#000000" font-family="sans-serif" font-size="12" lengthAdjust="spacingAndGlyphs" textLength="119" x="25" y="131.1387">RefinedAbstraction</text><line style="stroke: #A80036; stroke-width: 1.5;" x1="19" x2="150" y1="135.9688" y2="135.9688"/><ellipse cx="29" cy="146.9688" fill="none" rx="3" ry="3" style="stroke: #038048; stroke-width: 1.0;"/><text fill="#000000" font-family="sans-serif" font-size="10" lengthAdjust="spacingAndGlyphs" textLength="57" x="38" y="149.251">operation():</text><rect fill="#FEFECE" filter="url(#f19ibb27v988q6)" height="37.6094" style="stroke: #A80036; stroke-width: 1.5;" width="102" x="223.5" y="13.5"/><text fill="#000000" font-family="sans-serif" font-size="12" lengthAdjust="spacingAndGlyphs" textLength="78" x="235.5" y="26.6387">Implementor</text><line style="stroke: #A80036; stroke-width: 1.5;" x1="224.5" x2="324.5" y1="31.4688" y2="31.4688"/><ellipse cx="234.5" cy="42.4688" fill="none" rx="3" ry="3" style="stroke: #038048; stroke-width: 1.0;"/><text fill="#000000" font-family="sans-serif" font-size="10" lengthAdjust="spacingAndGlyphs" textLength="76" x="243.5" y="44.751">operationImp():</text><rect fill="#FEFECE" filter="url(#f19ibb27v988q6)" height="37.6094" style="stroke: #A80036; stroke-width: 1.5;" width="157" x="191" y="118"/><text fill="#000000" font-family="sans-serif" font-size="12" lengthAdjust="spacingAndGlyphs" textLength="143" x="198" y="131.1387">ConcreteImplementorA</text><line style="stroke: #A80036; stroke-width: 1.5;" x1="192" x2="347" y1="135.9688" y2="135.9688"/><ellipse cx="202" cy="146.9688" fill="none" rx="3" ry="3" style="stroke: #038048; stroke-width: 1.0;"/><text fill="#000000" font-family="sans-serif" font-size="10" lengthAdjust="spacingAndGlyphs" textLength="76" x="211" y="149.251">operationImp():</text><rect fill="#FEFECE" filter="url(#f19ibb27v988q6)" height="37.6094" style="stroke: #A80036; stroke-width: 1.5;" width="157" x="383" y="118"/><text fill="#000000" font-family="sans-serif" font-size="12" lengthAdjust="spacingAndGlyphs" textLength="143" x="390" y="131.1387">ConcreteImplementorB</text><line style="stroke: #A80036; stroke-width: 1.5;" x1="384" x2="539" y1="135.9688" y2="135.9688"/><ellipse cx="394" cy="146.9688" fill="none" rx="3" ry="3" style="stroke: #038048; stroke-width: 1.0;"/><text fill="#000000" font-family="sans-serif" font-size="10" lengthAdjust="spacingAndGlyphs" textLength="76" x="403" y="149.251">operationImp():</text><!--MD5=[9b8a9978f0a7251db28d3c357ee97f99]
reverse link Abstraction to RefinedAbstraction--><path d="M84.5,77.34 C84.5,91.51 84.5,106.45 84.5,117.7 " fill="none" id="Abstraction&lt;-RefinedAbstraction" style="stroke: #A80036; stroke-width: 1.0;"/><polygon fill="none" points="77.5,77.02,84.5,57.02,91.5,77.02,77.5,77.02" style="stroke: #A80036; stroke-width: 1.0;"/><!--MD5=[df4320c1230038878b9659345b37b211]
link Abstraction to Implementor--><path d="M175.15,32.5 C175.15,32.5 199.26,32.5 210.03,32.5 " fill="none" id="Abstraction-Implementor" style="stroke: #A80036; stroke-width: 1.0;"/><polygon fill="#A80036" points="223.32,32.5,214.32,28.5,218.32,32.5,214.32,36.5,223.32,32.5" style="stroke: #A80036; stroke-width: 1.0;"/><line style="stroke: #A80036; stroke-width: 1.0;" x1="218.32" x2="210.32" y1="32.5" y2="32.5"/><polygon fill="#FFFFFF" points="163.15,32.5,169.15,36.5,175.15,32.5,169.15,28.5,163.15,32.5" style="stroke: #A80036; stroke-width: 1.0;"/><text fill="#000000" font-family="sans-serif" font-size="13" lengthAdjust="spacingAndGlyphs" textLength="24" x="181.25" y="25.5669">imp</text><!--MD5=[8efae9d2507e12bec355044b954a8510]
reverse link Implementor to ConcreteImplementorA--><path d="M272.63,71.93 C271.86,87.66 271.01,105.12 270.39,117.83 " fill="none" id="Implementor&lt;-ConcreteImplementorA" style="stroke: #A80036; stroke-width: 1.0;"/><polygon fill="none" points="265.64,71.46,273.61,51.82,279.62,72.14,265.64,71.46" style="stroke: #A80036; stroke-width: 1.0;"/><!--MD5=[c37affc3937ac6f5d7808e18ad2a90aa]
reverse link Implementor to ConcreteImplementorB--><path d="M325.17,61.27 C358.03,79.28 399.9,102.24 428.51,117.92 " fill="none" id="Implementor&lt;-ConcreteImplementorB" style="stroke: #A80036; stroke-width: 1.0;"/><polygon fill="none" points="321.67,67.34,307.5,51.59,328.4,55.06,321.67,67.34" style="stroke: #A80036; stroke-width: 1.0;"/><!--MD5=[a38691c0d26f97788d54df8279142380]
@startuml bridge
object Abstraction {
  -implementor: Implementor
  +operation(): 
}

object RefinedAbstraction {
  +operation(): 
}

object Implementor {
  +operationImp(): 
}

object ConcreteImplementorA {
  +operationImp(): 
}

object ConcreteImplementorB {
  +operationImp(): 
}

Abstraction <|- - RefinedAbstraction
Abstraction o-right-> Implementor : imp
Implementor <|- - ConcreteImplementorA
Implementor <|-down- ConcreteImplementorB
@enduml

PlantUML version 1.2020.02(Sun Mar 01 11:22:07 CET 2020)
(GPL source distribution)
Java Runtime: OpenJDK Runtime Environment
JVM: OpenJDK 64-Bit Server VM
Java Version: 17.0.5+8-Ubuntu-2ubuntu122.04
Operating System: Linux
Default Encoding: UTF-8
Language: en
Country: US
--></g></svg>