<?xml version="1.0" encoding="UTF-8" standalone="no"?><svg xmlns="http://www.w3.org/2000/svg" xmlns:xlink="http://www.w3.org/1999/xlink" contentScriptType="application/ecmascript" contentStyleType="text/css" height="213px" preserveAspectRatio="none" style="width:618px;height:213px;" version="1.1" viewBox="0 0 618 213" width="618px" zoomAndPan="magnify"><defs><filter height="300%" id="fs4fthsdzz003" width="300%" x="-1" y="-1"><feGaussianBlur result="blurOut" stdDeviation="2.0"/><feColorMatrix in="blurOut" result="blurOut2" type="matrix" values="0 0 0 0 0 0 0 0 0 0 0 0 0 0 0 0 0 0 .4 0"/><feOffset dx="4.0" dy="4.0" in="blurOut2" result="blurOut3"/><feBlend in="SourceGraphic" in2="blurOut3" mode="normal"/></filter></defs><g><!--MD5=[57adcbfcd00175f9b7abe25398e7de0c]
class Director--><rect fill="#FEFECE" filter="url(#fs4fthsdzz003)" height="60.8047" id="Director" style="stroke: #A80036; stroke-width: 1.5;" width="89" x="247.5" y="8"/><ellipse cx="265.65" cy="24" fill="#ADD1B2" rx="11" ry="11" style="stroke: #A80036; stroke-width: 1.0;"/><path d="M268.6188,29.6406 Q268.0406,29.9375 267.4,30.0781 Q266.7594,30.2344 266.0563,30.2344 Q263.5563,30.2344 262.2281,28.5938 Q260.9156,26.9375 260.9156,23.8125 Q260.9156,20.6875 262.2281,19.0313 Q263.5563,17.375 266.0563,17.375 Q266.7594,17.375 267.4,17.5313 Q268.0563,17.6875 268.6188,17.9844 L268.6188,20.7031 Q267.9938,20.125 267.4,19.8594 Q266.8063,19.5781 266.1813,19.5781 Q264.8375,19.5781 264.15,20.6563 Q263.4625,21.7188 263.4625,23.8125 Q263.4625,25.9063 264.15,26.9844 Q264.8375,28.0469 266.1813,28.0469 Q266.8063,28.0469 267.4,27.7813 Q267.9938,27.5 268.6188,26.9219 L268.6188,29.6406 Z "/><text fill="#000000" font-family="sans-serif" font-size="12" lengthAdjust="spacingAndGlyphs" textLength="50" x="280.35" y="28.1543">Director</text><line style="stroke: #A80036; stroke-width: 1.5;" x1="248.5" x2="335.5" y1="40" y2="40"/><line style="stroke: #A80036; stroke-width: 1.5;" x1="248.5" x2="335.5" y1="48" y2="48"/><ellipse cx="258.5" cy="59" fill="#84BE84" rx="3" ry="3" style="stroke: #038048; stroke-width: 1.0;"/><text fill="#000000" font-family="sans-serif" font-size="11" lengthAdjust="spacingAndGlyphs" textLength="63" x="267.5" y="62.2104">Construct()</text><!--MD5=[a8dc8aefce085dae70bec15e302cfec9]
class Builder--><rect fill="#FEFECE" filter="url(#fs4fthsdzz003)" height="60.8047" id="Builder" style="stroke: #A80036; stroke-width: 1.5;" width="85" x="434.5" y="8"/><ellipse cx="454" cy="24" fill="#ADD1B2" rx="11" ry="11" style="stroke: #A80036; stroke-width: 1.0;"/><path d="M456.9688,29.6406 Q456.3906,29.9375 455.75,30.0781 Q455.1094,30.2344 454.4063,30.2344 Q451.9063,30.2344 450.5781,28.5938 Q449.2656,26.9375 449.2656,23.8125 Q449.2656,20.6875 450.5781,19.0313 Q451.9063,17.375 454.4063,17.375 Q455.1094,17.375 455.75,17.5313 Q456.4063,17.6875 456.9688,17.9844 L456.9688,20.7031 Q456.3438,20.125 455.75,19.8594 Q455.1563,19.5781 454.5313,19.5781 Q453.1875,19.5781 452.5,20.6563 Q451.8125,21.7188 451.8125,23.8125 Q451.8125,25.9063 452.5,26.9844 Q453.1875,28.0469 454.5313,28.0469 Q455.1563,28.0469 455.75,27.7813 Q456.3438,27.5 456.9688,26.9219 L456.9688,29.6406 Z "/><text fill="#000000" font-family="sans-serif" font-size="12" lengthAdjust="spacingAndGlyphs" textLength="43" x="469" y="28.1543">Builder</text><line style="stroke: #A80036; stroke-width: 1.5;" x1="435.5" x2="518.5" y1="40" y2="40"/><line style="stroke: #A80036; stroke-width: 1.5;" x1="435.5" x2="518.5" y1="48" y2="48"/><ellipse cx="445.5" cy="59" fill="#84BE84" rx="3" ry="3" style="stroke: #038048; stroke-width: 1.0;"/><text fill="#000000" font-family="sans-serif" font-size="11" lengthAdjust="spacingAndGlyphs" textLength="59" x="454.5" y="62.2104">BuildPart()</text><!--MD5=[a28e914f4f988ff6edfdcac171bbdb3d]
class ConcreteBuilder--><rect fill="#FEFECE" filter="url(#fs4fthsdzz003)" height="73.6094" id="ConcreteBuilder" style="stroke: #A80036; stroke-width: 1.5;" width="132" x="475" y="129"/><ellipse cx="490" cy="145" fill="#ADD1B2" rx="11" ry="11" style="stroke: #A80036; stroke-width: 1.0;"/><path d="M492.9688,150.6406 Q492.3906,150.9375 491.75,151.0781 Q491.1094,151.2344 490.4063,151.2344 Q487.9063,151.2344 486.5781,149.5938 Q485.2656,147.9375 485.2656,144.8125 Q485.2656,141.6875 486.5781,140.0313 Q487.9063,138.375 490.4063,138.375 Q491.1094,138.375 491.75,138.5313 Q492.4063,138.6875 492.9688,138.9844 L492.9688,141.7031 Q492.3438,141.125 491.75,140.8594 Q491.1563,140.5781 490.5313,140.5781 Q489.1875,140.5781 488.5,141.6563 Q487.8125,142.7188 487.8125,144.8125 Q487.8125,146.9063 488.5,147.9844 Q489.1875,149.0469 490.5313,149.0469 Q491.1563,149.0469 491.75,148.7813 Q492.3438,148.5 492.9688,147.9219 L492.9688,150.6406 Z "/><text fill="#000000" font-family="sans-serif" font-size="12" lengthAdjust="spacingAndGlyphs" textLength="100" x="504" y="149.1543">ConcreteBuilder</text><line style="stroke: #A80036; stroke-width: 1.5;" x1="476" x2="606" y1="161" y2="161"/><line style="stroke: #A80036; stroke-width: 1.5;" x1="476" x2="606" y1="169" y2="169"/><ellipse cx="486" cy="180" fill="#84BE84" rx="3" ry="3" style="stroke: #038048; stroke-width: 1.0;"/><text fill="#000000" font-family="sans-serif" font-size="11" lengthAdjust="spacingAndGlyphs" textLength="59" x="495" y="183.2104">BuildPart()</text><ellipse cx="486" cy="192.8047" fill="#84BE84" rx="3" ry="3" style="stroke: #038048; stroke-width: 1.0;"/><text fill="#000000" font-family="sans-serif" font-size="11" lengthAdjust="spacingAndGlyphs" textLength="71" x="495" y="196.0151">GetProduct()</text><!--MD5=[72136138052d025cffdce3c22fbd185f]
class Product--><rect fill="#FEFECE" filter="url(#fs4fthsdzz003)" height="48" id="Product" style="stroke: #A80036; stroke-width: 1.5;" width="81" x="358.5" y="142"/><ellipse cx="373.5" cy="158" fill="#ADD1B2" rx="11" ry="11" style="stroke: #A80036; stroke-width: 1.0;"/><path d="M376.4688,163.6406 Q375.8906,163.9375 375.25,164.0781 Q374.6094,164.2344 373.9063,164.2344 Q371.4063,164.2344 370.0781,162.5938 Q368.7656,160.9375 368.7656,157.8125 Q368.7656,154.6875 370.0781,153.0313 Q371.4063,151.375 373.9063,151.375 Q374.6094,151.375 375.25,151.5313 Q375.9063,151.6875 376.4688,151.9844 L376.4688,154.7031 Q375.8438,154.125 375.25,153.8594 Q374.6563,153.5781 374.0313,153.5781 Q372.6875,153.5781 372,154.6563 Q371.3125,155.7188 371.3125,157.8125 Q371.3125,159.9063 372,160.9844 Q372.6875,162.0469 374.0313,162.0469 Q374.6563,162.0469 375.25,161.7813 Q375.8438,161.5 376.4688,160.9219 L376.4688,163.6406 Z "/><text fill="#000000" font-family="sans-serif" font-size="12" lengthAdjust="spacingAndGlyphs" textLength="49" x="387.5" y="162.1543">Product</text><line style="stroke: #A80036; stroke-width: 1.5;" x1="359.5" x2="438.5" y1="174" y2="174"/><line style="stroke: #A80036; stroke-width: 1.5;" x1="359.5" x2="438.5" y1="182" y2="182"/><path d="M6,153.5 L6,178.6328 A0,0 0 0 0 6,178.6328 L324,178.6328 A0,0 0 0 0 324,178.6328 L324,163.5 L314,153.5 L180.65,153.5 L261.9,69.24 L172.65,153.5 L6,153.5 A0,0 0 0 0 6,153.5 " fill="#FBFB77" filter="url(#fs4fthsdzz003)" style="stroke: #A80036; stroke-width: 1.0;"/><path d="M314,153.5 L314,163.5 L324,163.5 L314,153.5 " fill="#FBFB77" style="stroke: #A80036; stroke-width: 1.0;"/><text fill="#000000" font-family="sans-serif" font-size="13" lengthAdjust="spacingAndGlyphs" textLength="297" x="12" y="170.5669">for all object in structure { builder.BuildPart() }</text><!--MD5=[2760341590ffd2e711ef41992cc437b9]
link Director to Builder--><path d="M336.8,38.5 C367.52,38.5 398.24,38.5 428.95,38.5 " fill="none" id="Director-&gt;Builder" style="stroke: #A80036; stroke-width: 1.0;"/><polygon fill="#A80036" points="434.28,38.5,425.28,34.5,429.28,38.5,425.28,42.5,434.28,38.5" style="stroke: #A80036; stroke-width: 1.0;"/><!--MD5=[7786e64b67ec9711864a83bed09b0e0a]
reverse link Builder to ConcreteBuilder--><path d="M501.3,87.14 C508.33,100.94 515.9,115.78 522.52,128.76 " fill="none" id="Builder&lt;-ConcreteBuilder" style="stroke: #A80036; stroke-width: 1.0;"/><polygon fill="none" points="495.02,90.24,492.17,69.24,507.49,83.88,495.02,90.24" style="stroke: #A80036; stroke-width: 1.0;"/><!--MD5=[95549cce4f45c1e3a3a5ff260ea9aec0]
reverse link Product to ConcreteBuilder--><path d="M444.99,166 C454.98,166 464.97,166 474.96,166 " fill="none" id="Product&lt;-ConcreteBuilder" style="stroke: #A80036; stroke-width: 1.0; stroke-dasharray: 7.0,7.0;"/><polygon fill="#A80036" points="439.77,166,448.77,170,444.77,166,448.77,162,439.77,166" style="stroke: #A80036; stroke-width: 1.0;"/><!--MD5=[9004255bccc8837986499d475a554e15]
@startuml builder

class Director {
    +Construct() 
}

class Builder {
    +BuildPart()
}

class ConcreteBuilder {
    +BuildPart()
    +GetProduct()
}

class Product {
}

Director -right-> Builder
ConcreteBuilder -up-|> Builder
Product <.left. ConcreteBuilder

note bottom of Director : for all object in structure { builder.BuildPart() }
      
@enduml

PlantUML version 1.2020.02(Sun Mar 01 11:22:07 CET 2020)
(GPL source distribution)
Java Runtime: Java(TM) SE Runtime Environment
JVM: Java HotSpot(TM) 64-Bit Server VM
Java Version: 19.0.1+10-21
Operating System: Linux
Default Encoding: UTF-8
Language: en
Country: US
--></g></svg>