<?xml version="1.0" encoding="UTF-8" standalone="no"?><svg xmlns="http://www.w3.org/2000/svg" xmlns:xlink="http://www.w3.org/1999/xlink" contentScriptType="application/ecmascript" contentStyleType="text/css" height="287px" preserveAspectRatio="none" style="width:561px;height:287px;" version="1.1" viewBox="0 0 561 287" width="561px" zoomAndPan="magnify"><defs><filter height="300%" id="ftkgua74fysnj" width="300%" x="-1" y="-1"><feGaussianBlur result="blurOut" stdDeviation="2.0"/><feColorMatrix in="blurOut" result="blurOut2" type="matrix" values="0 0 0 0 0 0 0 0 0 0 0 0 0 0 0 0 0 0 .4 0"/><feOffset dx="4.0" dy="4.0" in="blurOut2" result="blurOut3"/><feBlend in="SourceGraphic" in2="blurOut3" mode="normal"/></filter></defs><g><!--MD5=[8d9f5c65414212f4f21f7e0a62cdefa0]
class Prototype--><rect fill="#FEFECE" filter="url(#ftkgua74fysnj)" height="60.8047" id="Prototype" style="stroke: #A80036; stroke-width: 1.5;" width="93" x="231.5" y="8"/><ellipse cx="246.5" cy="24" fill="#B4A7E5" rx="11" ry="11" style="stroke: #A80036; stroke-width: 1.0;"/><path d="M242.4219,19.7656 L242.4219,17.6094 L249.8125,17.6094 L249.8125,19.7656 L247.3438,19.7656 L247.3438,27.8438 L249.8125,27.8438 L249.8125,30 L242.4219,30 L242.4219,27.8438 L244.8906,27.8438 L244.8906,19.7656 L242.4219,19.7656 Z "/><text fill="#000000" font-family="sans-serif" font-size="12" font-style="italic" lengthAdjust="spacingAndGlyphs" textLength="61" x="260.5" y="28.1543">Prototype</text><line style="stroke: #A80036; stroke-width: 1.5;" x1="232.5" x2="323.5" y1="40" y2="40"/><line style="stroke: #A80036; stroke-width: 1.5;" x1="232.5" x2="323.5" y1="48" y2="48"/><ellipse cx="242.5" cy="59" fill="#84BE84" rx="3" ry="3" style="stroke: #038048; stroke-width: 1.0;"/><text fill="#000000" font-family="sans-serif" font-size="11" lengthAdjust="spacingAndGlyphs" textLength="42" x="251.5" y="62.2104">clone():</text><!--MD5=[404fcc987980ef21d003b67a37c743bc]
class ConcretePrototype1--><rect fill="#FEFECE" filter="url(#ftkgua74fysnj)" height="60.8047" id="ConcretePrototype1" style="stroke: #A80036; stroke-width: 1.5;" width="158" x="199" y="129"/><ellipse cx="214" cy="145" fill="#ADD1B2" rx="11" ry="11" style="stroke: #A80036; stroke-width: 1.0;"/><path d="M216.9688,150.6406 Q216.3906,150.9375 215.75,151.0781 Q215.1094,151.2344 214.4063,151.2344 Q211.9063,151.2344 210.5781,149.5938 Q209.2656,147.9375 209.2656,144.8125 Q209.2656,141.6875 210.5781,140.0313 Q211.9063,138.375 214.4063,138.375 Q215.1094,138.375 215.75,138.5313 Q216.4063,138.6875 216.9688,138.9844 L216.9688,141.7031 Q216.3438,141.125 215.75,140.8594 Q215.1563,140.5781 214.5313,140.5781 Q213.1875,140.5781 212.5,141.6563 Q211.8125,142.7188 211.8125,144.8125 Q211.8125,146.9063 212.5,147.9844 Q213.1875,149.0469 214.5313,149.0469 Q215.1563,149.0469 215.75,148.7813 Q216.3438,148.5 216.9688,147.9219 L216.9688,150.6406 Z "/><text fill="#000000" font-family="sans-serif" font-size="12" lengthAdjust="spacingAndGlyphs" textLength="126" x="228" y="149.1543">ConcretePrototype1</text><line style="stroke: #A80036; stroke-width: 1.5;" x1="200" x2="356" y1="161" y2="161"/><line style="stroke: #A80036; stroke-width: 1.5;" x1="200" x2="356" y1="169" y2="169"/><ellipse cx="210" cy="180" fill="#84BE84" rx="3" ry="3" style="stroke: #038048; stroke-width: 1.0;"/><text fill="#000000" font-family="sans-serif" font-size="11" lengthAdjust="spacingAndGlyphs" textLength="42" x="219" y="183.2104">clone():</text><!--MD5=[8c6949f0acb748698098fb32728e4dfc]
class ConcretePrototype2--><rect fill="#FEFECE" filter="url(#ftkgua74fysnj)" height="60.8047" id="ConcretePrototype2" style="stroke: #A80036; stroke-width: 1.5;" width="158" x="392" y="129"/><ellipse cx="407" cy="145" fill="#ADD1B2" rx="11" ry="11" style="stroke: #A80036; stroke-width: 1.0;"/><path d="M409.9688,150.6406 Q409.3906,150.9375 408.75,151.0781 Q408.1094,151.2344 407.4063,151.2344 Q404.9063,151.2344 403.5781,149.5938 Q402.2656,147.9375 402.2656,144.8125 Q402.2656,141.6875 403.5781,140.0313 Q404.9063,138.375 407.4063,138.375 Q408.1094,138.375 408.75,138.5313 Q409.4063,138.6875 409.9688,138.9844 L409.9688,141.7031 Q409.3438,141.125 408.75,140.8594 Q408.1563,140.5781 407.5313,140.5781 Q406.1875,140.5781 405.5,141.6563 Q404.8125,142.7188 404.8125,144.8125 Q404.8125,146.9063 405.5,147.9844 Q406.1875,149.0469 407.5313,149.0469 Q408.1563,149.0469 408.75,148.7813 Q409.3438,148.5 409.9688,147.9219 L409.9688,150.6406 Z "/><text fill="#000000" font-family="sans-serif" font-size="12" lengthAdjust="spacingAndGlyphs" textLength="126" x="421" y="149.1543">ConcretePrototype2</text><line style="stroke: #A80036; stroke-width: 1.5;" x1="393" x2="549" y1="161" y2="161"/><line style="stroke: #A80036; stroke-width: 1.5;" x1="393" x2="549" y1="169" y2="169"/><ellipse cx="403" cy="180" fill="#84BE84" rx="3" ry="3" style="stroke: #038048; stroke-width: 1.0;"/><text fill="#000000" font-family="sans-serif" font-size="11" lengthAdjust="spacingAndGlyphs" textLength="42" x="412" y="183.2104">clone():</text><!--MD5=[ed6624c6556d5e7b1bd23032162d20b7]
class Client--><rect fill="#FEFECE" filter="url(#ftkgua74fysnj)" height="60.8047" id="Client" style="stroke: #A80036; stroke-width: 1.5;" width="88" x="75" y="8"/><ellipse cx="99.45" cy="24" fill="#ADD1B2" rx="11" ry="11" style="stroke: #A80036; stroke-width: 1.0;"/><path d="M102.4188,29.6406 Q101.8406,29.9375 101.2,30.0781 Q100.5594,30.2344 99.8563,30.2344 Q97.3563,30.2344 96.0281,28.5938 Q94.7156,26.9375 94.7156,23.8125 Q94.7156,20.6875 96.0281,19.0313 Q97.3563,17.375 99.8563,17.375 Q100.5594,17.375 101.2,17.5313 Q101.8563,17.6875 102.4188,17.9844 L102.4188,20.7031 Q101.7938,20.125 101.2,19.8594 Q100.6063,19.5781 99.9813,19.5781 Q98.6375,19.5781 97.95,20.6563 Q97.2625,21.7188 97.2625,23.8125 Q97.2625,25.9063 97.95,26.9844 Q98.6375,28.0469 99.9813,28.0469 Q100.6063,28.0469 101.2,27.7813 Q101.7938,27.5 102.4188,26.9219 L102.4188,29.6406 Z "/><text fill="#000000" font-family="sans-serif" font-size="12" lengthAdjust="spacingAndGlyphs" textLength="35" x="115.55" y="28.1543">Client</text><line style="stroke: #A80036; stroke-width: 1.5;" x1="76" x2="162" y1="40" y2="40"/><line style="stroke: #A80036; stroke-width: 1.5;" x1="76" x2="162" y1="48" y2="48"/><ellipse cx="86" cy="59" fill="#84BE84" rx="3" ry="3" style="stroke: #038048; stroke-width: 1.0;"/><text fill="#000000" font-family="sans-serif" font-size="11" lengthAdjust="spacingAndGlyphs" textLength="62" x="95" y="62.2104">operation()</text><path d="M210,250 L210,275.1328 A0,0 0 0 0 210,275.1328 L346,275.1328 A0,0 0 0 0 346,275.1328 L346,260 L336,250 L282,250 L278,190.26 L274,250 L210,250 A0,0 0 0 0 210,250 " fill="#FBFB77" filter="url(#ftkgua74fysnj)" style="stroke: #A80036; stroke-width: 1.0;"/><path d="M336,250 L336,260 L346,260 L336,250 " fill="#FBFB77" style="stroke: #A80036; stroke-width: 1.0;"/><text fill="#000000" font-family="sans-serif" font-size="13" lengthAdjust="spacingAndGlyphs" textLength="115" x="216" y="267.0669">return copy of self</text><path d="M403,250 L403,275.1328 A0,0 0 0 0 403,275.1328 L539,275.1328 A0,0 0 0 0 539,275.1328 L539,260 L529,250 L475,250 L471,190.26 L467,250 L403,250 A0,0 0 0 0 403,250 " fill="#FBFB77" filter="url(#ftkgua74fysnj)" style="stroke: #A80036; stroke-width: 1.0;"/><path d="M529,250 L529,260 L539,260 L529,250 " fill="#FBFB77" style="stroke: #A80036; stroke-width: 1.0;"/><text fill="#000000" font-family="sans-serif" font-size="13" lengthAdjust="spacingAndGlyphs" textLength="115" x="409" y="267.0669">return copy of self</text><path d="M6,147 L6,172.1328 A0,0 0 0 0 6,172.1328 L164,172.1328 A0,0 0 0 0 164,172.1328 L164,157 L154,147 L92.37,147 L110.51,69.22 L84.37,147 L6,147 A0,0 0 0 0 6,147 " fill="#FBFB77" filter="url(#ftkgua74fysnj)" style="stroke: #A80036; stroke-width: 1.0;"/><path d="M154,147 L154,157 L164,157 L154,147 " fill="#FBFB77" style="stroke: #A80036; stroke-width: 1.0;"/><text fill="#000000" font-family="sans-serif" font-size="13" lengthAdjust="spacingAndGlyphs" textLength="137" x="12" y="164.0669">p = prototype.clone()</text><!--MD5=[21a2b489c64b9ef8377fd69534331413]
link Client to Prototype--><path d="M163.1,38.5 C184.15,38.5 205.2,38.5 226.26,38.5 " fill="none" id="Client-&gt;Prototype" style="stroke: #A80036; stroke-width: 1.0;"/><polygon fill="#A80036" points="231.32,38.5,222.32,34.5,226.32,38.5,222.32,42.5,231.32,38.5" style="stroke: #A80036; stroke-width: 1.0;"/><!--MD5=[1ff2454095d6ce9ac51e82e695e4c78a]
reverse link Prototype to ConcretePrototype1--><path d="M278,89.33 C278,102.73 278,116.81 278,128.74 " fill="none" id="Prototype&lt;-ConcretePrototype1" style="stroke: #A80036; stroke-width: 1.0;"/><polygon fill="none" points="271,89.22,278,69.22,285,89.22,271,89.22" style="stroke: #A80036; stroke-width: 1.0;"/><!--MD5=[464cca9e03513bfdbcd037c681f0d0d9]
reverse link Prototype to ConcretePrototype2--><path d="M341.9,78.9 C368.36,95.21 398.52,113.81 423.03,128.92 " fill="none" id="Prototype&lt;-ConcretePrototype2" style="stroke: #A80036; stroke-width: 1.0;"/><polygon fill="none" points="338.07,84.76,324.72,68.31,345.42,72.84,338.07,84.76" style="stroke: #A80036; stroke-width: 1.0;"/><!--MD5=[9111e1126919cf4ec6ccf14df7128c27]
@startuml prototype

interface Prototype {
    + clone(): 
}

class ConcretePrototype1 {
    + clone(): 
}

class ConcretePrototype2 {
    + clone(): 
}

class Client{
    + operation()
}

Client -right-> Prototype
Prototype <|- - ConcretePrototype1
Prototype <|- - ConcretePrototype2

note bottom of ConcretePrototype1 : return copy of self
note bottom of ConcretePrototype2 : return copy of self
note bottom of Client : p = prototype.clone()

@enduml

PlantUML version 1.2020.02(Sun Mar 01 11:22:07 CET 2020)
(GPL source distribution)
Java Runtime: Java(TM) SE Runtime Environment
JVM: Java HotSpot(TM) 64-Bit Server VM
Java Version: 19.0.1+10-21
Operating System: Linux
Default Encoding: UTF-8
Language: en
Country: US
--></g></svg>