<?xml version="1.0" encoding="UTF-8" standalone="no"?><svg xmlns="http://www.w3.org/2000/svg" xmlns:xlink="http://www.w3.org/1999/xlink" contentScriptType="application/ecmascript" contentStyleType="text/css" height="79px" preserveAspectRatio="none" style="width:412px;height:79px;" version="1.1" viewBox="0 0 412 79" width="412px" zoomAndPan="magnify"><defs><filter height="300%" id="f5w6vfkmt7k7m" width="300%" x="-1" y="-1"><feGaussianBlur result="blurOut" stdDeviation="2.0"/><feColorMatrix in="blurOut" result="blurOut2" type="matrix" values="0 0 0 0 0 0 0 0 0 0 0 0 0 0 0 0 0 0 .4 0"/><feOffset dx="4.0" dy="4.0" in="blurOut2" result="blurOut3"/><feBlend in="SourceGraphic" in2="blurOut3" mode="normal"/></filter></defs><g><!--MD5=[2f4e497837a991172d40b04b7a7d0ca2]
class Singleton--><rect fill="#FEFECE" filter="url(#f5w6vfkmt7k7m)" height="60.8047" id="Singleton" style="stroke: #A80036; stroke-width: 1.5;" width="198" x="6" y="8"/><ellipse cx="71.25" cy="24" fill="#ADD1B2" rx="11" ry="11" style="stroke: #A80036; stroke-width: 1.0;"/><path d="M74.2188,29.6406 Q73.6406,29.9375 73,30.0781 Q72.3594,30.2344 71.6563,30.2344 Q69.1563,30.2344 67.8281,28.5938 Q66.5156,26.9375 66.5156,23.8125 Q66.5156,20.6875 67.8281,19.0313 Q69.1563,17.375 71.6563,17.375 Q72.3594,17.375 73,17.5313 Q73.6563,17.6875 74.2188,17.9844 L74.2188,20.7031 Q73.5938,20.125 73,19.8594 Q72.4063,19.5781 71.7813,19.5781 Q70.4375,19.5781 69.75,20.6563 Q69.0625,21.7188 69.0625,23.8125 Q69.0625,25.9063 69.75,26.9844 Q70.4375,28.0469 71.7813,28.0469 Q72.4063,28.0469 73,27.7813 Q73.5938,27.5 74.2188,26.9219 L74.2188,29.6406 Z "/><text fill="#000000" font-family="sans-serif" font-size="12" lengthAdjust="spacingAndGlyphs" textLength="59" x="91.75" y="28.1543">Singleton</text><line style="stroke: #A80036; stroke-width: 1.5;" x1="7" x2="203" y1="40" y2="40"/><line style="stroke: #A80036; stroke-width: 1.5;" x1="7" x2="203" y1="48" y2="48"/><ellipse cx="17" cy="59" fill="#84BE84" rx="3" ry="3" style="stroke: #038048; stroke-width: 1.0;"/><text fill="#000000" font-family="sans-serif" font-size="11" lengthAdjust="spacingAndGlyphs" textLength="172" x="26" y="62.2104">__new__(cls, *args, **kwargs)</text><path d="M239.5,26 L239.5,34.5 L204.1,38.5 L239.5,42.5 L239.5,51.1328 A0,0 0 0 0 239.5,51.1328 L400.5,51.1328 A0,0 0 0 0 400.5,51.1328 L400.5,36 L390.5,26 L239.5,26 A0,0 0 0 0 239.5,26 " fill="#FBFB77" filter="url(#f5w6vfkmt7k7m)" style="stroke: #A80036; stroke-width: 1.0;"/><path d="M390.5,26 L390.5,36 L400.5,36 L390.5,26 " fill="#FBFB77" style="stroke: #A80036; stroke-width: 1.0;"/><text fill="#000000" font-family="sans-serif" font-size="13" lengthAdjust="spacingAndGlyphs" textLength="140" x="245.5" y="43.0669">return uniqueInstance</text><!--MD5=[b948a4273578999e2885c681815222b0]
@startuml singleton
class Singleton {
    + __new__(cls, *args, **kwargs)
}

note right of Singleton : return uniqueInstance

@enduml

PlantUML version 1.2020.02(Sun Mar 01 11:22:07 CET 2020)
(GPL source distribution)
Java Runtime: Java(TM) SE Runtime Environment
JVM: Java HotSpot(TM) 64-Bit Server VM
Java Version: 19.0.1+10-21
Operating System: Linux
Default Encoding: UTF-8
Language: en
Country: US
--></g></svg>