<?xml version="1.0" encoding="UTF-8" standalone="no"?><svg xmlns="http://www.w3.org/2000/svg" xmlns:xlink="http://www.w3.org/1999/xlink" contentScriptType="application/ecmascript" contentStyleType="text/css" height="217px" preserveAspectRatio="none" style="width:606px;height:217px;" version="1.1" viewBox="0 0 606 217" width="606px" zoomAndPan="magnify"><defs><filter height="300%" id="f16t7egch9sbcd" width="300%" x="-1" y="-1"><feGaussianBlur result="blurOut" stdDeviation="2.0"/><feColorMatrix in="blurOut" result="blurOut2" type="matrix" values="0 0 0 0 0 0 0 0 0 0 0 0 0 0 0 0 0 0 .4 0"/><feOffset dx="4.0" dy="4.0" in="blurOut2" result="blurOut3"/><feBlend in="SourceGraphic" in2="blurOut3" mode="normal"/></filter></defs><g><!--MD5=[2c589014e840926a718801db2289e0a7]
class Creator--><rect fill="#FEFECE" filter="url(#f16t7egch9sbcd)" height="60.8047" id="Creator" style="stroke: #A80036; stroke-width: 1.5;" width="123" x="247.5" y="8"/><ellipse cx="282.3" cy="24" fill="#A9DCDF" rx="11" ry="11" style="stroke: #A80036; stroke-width: 1.0;"/><path d="M282.4094,19.3438 L281.2531,24.4219 L283.5813,24.4219 L282.4094,19.3438 Z M280.925,17.1094 L283.9094,17.1094 L287.2688,29.5 L284.8156,29.5 L284.05,26.4375 L280.7688,26.4375 L280.0188,29.5 L277.5813,29.5 L280.925,17.1094 Z "/><text fill="#000000" font-family="sans-serif" font-size="12" font-style="italic" lengthAdjust="spacingAndGlyphs" textLength="47" x="300.7" y="28.1543">Creator</text><line style="stroke: #A80036; stroke-width: 1.5;" x1="248.5" x2="369.5" y1="40" y2="40"/><line style="stroke: #A80036; stroke-width: 1.5;" x1="248.5" x2="369.5" y1="48" y2="48"/><rect fill="#F24D5C" height="6" style="stroke: #C82930; stroke-width: 1.0;" width="6" x="255.5" y="56"/><text fill="#000000" font-family="sans-serif" font-size="11" font-style="italic" lengthAdjust="spacingAndGlyphs" textLength="97" x="267.5" y="62.2104">factory_method()</text><!--MD5=[72136138052d025cffdce3c22fbd185f]
class Product--><rect fill="#FEFECE" filter="url(#f16t7egch9sbcd)" height="60.8047" id="Product" style="stroke: #A80036; stroke-width: 1.5;" width="88" x="482" y="8"/><ellipse cx="500.6" cy="24" fill="#A9DCDF" rx="11" ry="11" style="stroke: #A80036; stroke-width: 1.0;"/><path d="M500.7094,19.3438 L499.5531,24.4219 L501.8813,24.4219 L500.7094,19.3438 Z M499.225,17.1094 L502.2094,17.1094 L505.5688,29.5 L503.1156,29.5 L502.35,26.4375 L499.0688,26.4375 L498.3188,29.5 L495.8813,29.5 L499.225,17.1094 Z "/><text fill="#000000" font-family="sans-serif" font-size="12" font-style="italic" lengthAdjust="spacingAndGlyphs" textLength="48" x="515.4" y="28.1543">Product</text><line style="stroke: #A80036; stroke-width: 1.5;" x1="483" x2="569" y1="40" y2="40"/><line style="stroke: #A80036; stroke-width: 1.5;" x1="483" x2="569" y1="48" y2="48"/><rect fill="#F24D5C" height="6" style="stroke: #C82930; stroke-width: 1.0;" width="6" x="490" y="56"/><text fill="#000000" font-family="sans-serif" font-size="11" font-style="italic" lengthAdjust="spacingAndGlyphs" textLength="62" x="502" y="62.2104">operation()</text><!--MD5=[990132e04f994323e3060f5453bb4352]
class ConcreteProduct--><rect fill="#FEFECE" filter="url(#f16t7egch9sbcd)" height="60.8047" id="ConcreteProduct" style="stroke: #A80036; stroke-width: 1.5;" width="138" x="457" y="146"/><ellipse cx="472" cy="162" fill="#ADD1B2" rx="11" ry="11" style="stroke: #A80036; stroke-width: 1.0;"/><path d="M474.9688,167.6406 Q474.3906,167.9375 473.75,168.0781 Q473.1094,168.2344 472.4063,168.2344 Q469.9063,168.2344 468.5781,166.5938 Q467.2656,164.9375 467.2656,161.8125 Q467.2656,158.6875 468.5781,157.0313 Q469.9063,155.375 472.4063,155.375 Q473.1094,155.375 473.75,155.5313 Q474.4063,155.6875 474.9688,155.9844 L474.9688,158.7031 Q474.3438,158.125 473.75,157.8594 Q473.1563,157.5781 472.5313,157.5781 Q471.1875,157.5781 470.5,158.6563 Q469.8125,159.7188 469.8125,161.8125 Q469.8125,163.9063 470.5,164.9844 Q471.1875,166.0469 472.5313,166.0469 Q473.1563,166.0469 473.75,165.7813 Q474.3438,165.5 474.9688,164.9219 L474.9688,167.6406 Z "/><text fill="#000000" font-family="sans-serif" font-size="12" lengthAdjust="spacingAndGlyphs" textLength="106" x="486" y="166.1543">ConcreteProduct</text><line style="stroke: #A80036; stroke-width: 1.5;" x1="458" x2="594" y1="178" y2="178"/><line style="stroke: #A80036; stroke-width: 1.5;" x1="458" x2="594" y1="186" y2="186"/><ellipse cx="468" cy="197" fill="#84BE84" rx="3" ry="3" style="stroke: #038048; stroke-width: 1.0;"/><text fill="#000000" font-family="sans-serif" font-size="11" lengthAdjust="spacingAndGlyphs" textLength="62" x="477" y="200.2104">operation()</text><!--MD5=[9fa9675923b2c821721124a66decc968]
class ConcreteCreator--><rect fill="#FEFECE" filter="url(#f16t7egch9sbcd)" height="60.8047" id="ConcreteCreator" style="stroke: #A80036; stroke-width: 1.5;" width="136" x="241" y="146"/><ellipse cx="256" cy="162" fill="#ADD1B2" rx="11" ry="11" style="stroke: #A80036; stroke-width: 1.0;"/><path d="M258.9688,167.6406 Q258.3906,167.9375 257.75,168.0781 Q257.1094,168.2344 256.4063,168.2344 Q253.9063,168.2344 252.5781,166.5938 Q251.2656,164.9375 251.2656,161.8125 Q251.2656,158.6875 252.5781,157.0313 Q253.9063,155.375 256.4063,155.375 Q257.1094,155.375 257.75,155.5313 Q258.4063,155.6875 258.9688,155.9844 L258.9688,158.7031 Q258.3438,158.125 257.75,157.8594 Q257.1563,157.5781 256.5313,157.5781 Q255.1875,157.5781 254.5,158.6563 Q253.8125,159.7188 253.8125,161.8125 Q253.8125,163.9063 254.5,164.9844 Q255.1875,166.0469 256.5313,166.0469 Q257.1563,166.0469 257.75,165.7813 Q258.3438,165.5 258.9688,164.9219 L258.9688,167.6406 Z "/><text fill="#000000" font-family="sans-serif" font-size="12" lengthAdjust="spacingAndGlyphs" textLength="104" x="270" y="166.1543">ConcreteCreator</text><line style="stroke: #A80036; stroke-width: 1.5;" x1="242" x2="376" y1="178" y2="178"/><line style="stroke: #A80036; stroke-width: 1.5;" x1="242" x2="376" y1="186" y2="186"/><ellipse cx="252" cy="197" fill="#84BE84" rx="3" ry="3" style="stroke: #038048; stroke-width: 1.0;"/><text fill="#000000" font-family="sans-serif" font-size="11" lengthAdjust="spacingAndGlyphs" textLength="96" x="261" y="200.2104">factory_method()</text><path d="M6,164 L6,189.1328 A0,0 0 0 0 6,189.1328 L206,189.1328 A0,0 0 0 0 206,189.1328 L206,182 L240.81,176.5 L206,174 L206,174 L196,164 L6,164 A0,0 0 0 0 6,164 " fill="#FBFB77" filter="url(#f16t7egch9sbcd)" style="stroke: #A80036; stroke-width: 1.0;"/><path d="M196,164 L196,174 L206,174 L196,164 " fill="#FBFB77" style="stroke: #A80036; stroke-width: 1.0;"/><text fill="#000000" font-family="sans-serif" font-size="13" lengthAdjust="spacingAndGlyphs" textLength="179" x="12" y="181.0669">return new ConcreteProduct</text><path d="M18,26 L18,51.1328 A0,0 0 0 0 18,51.1328 L212,51.1328 A0,0 0 0 0 212,51.1328 L212,44 L247.24,38.5 L212,36 L212,36 L202,26 L18,26 A0,0 0 0 0 18,26 " fill="#FBFB77" filter="url(#f16t7egch9sbcd)" style="stroke: #A80036; stroke-width: 1.0;"/><path d="M202,26 L202,36 L212,36 L202,26 " fill="#FBFB77" style="stroke: #A80036; stroke-width: 1.0;"/><text fill="#000000" font-family="sans-serif" font-size="13" lengthAdjust="spacingAndGlyphs" textLength="173" x="24" y="43.0669">product = FactoryMethod()</text><!--MD5=[ef1bc5798733e6fc5a6eca0cf841bcae]
reverse link Creator to ConcreteCreator--><path d="M309,89.16 C309,108.08 309,129.04 309,145.58 " fill="none" id="Creator&lt;-ConcreteCreator" style="stroke: #A80036; stroke-width: 1.0; stroke-dasharray: 7.0,7.0;"/><polygon fill="none" points="302,89.01,309,69.01,316,89.01,302,89.01" style="stroke: #A80036; stroke-width: 1.0;"/><text fill="#000000" font-family="sans-serif" font-size="13" lengthAdjust="spacingAndGlyphs" textLength="51" x="310" y="112.0669">Extends</text><!--MD5=[03f389ab946010d19db5823a3056b88d]
reverse link Product to ConcreteProduct--><path d="M526,89.16 C526,108.08 526,129.04 526,145.58 " fill="none" id="Product&lt;-ConcreteProduct" style="stroke: #A80036; stroke-width: 1.0; stroke-dasharray: 7.0,7.0;"/><polygon fill="none" points="519,89.01,526,69.01,533,89.01,519,89.01" style="stroke: #A80036; stroke-width: 1.0;"/><text fill="#000000" font-family="sans-serif" font-size="13" lengthAdjust="spacingAndGlyphs" textLength="51" x="527" y="112.0669">Extends</text><!--MD5=[d9a668b74f14d95d6628992b70368a5d]
link ConcreteCreator to ConcreteProduct--><path d="M377.06,176.5 C400.74,176.5 427.41,176.5 451.57,176.5 " fill="none" id="ConcreteCreator-&gt;ConcreteProduct" style="stroke: #A80036; stroke-width: 1.0;"/><polygon fill="#A80036" points="456.68,176.5,447.68,172.5,451.68,176.5,447.68,180.5,456.68,176.5" style="stroke: #A80036; stroke-width: 1.0;"/><text fill="#000000" font-family="sans-serif" font-size="13" lengthAdjust="spacingAndGlyphs" textLength="43" x="395.5" y="169.5669">Create</text><!--MD5=[642a97afc728ac7bbea9cc236802af7e]
@startuml factory_method


abstract class  Creator {
    {abstract} -factory_method()
}


abstract class Product {
    {abstract} -operation()
}

class ConcreteProduct {
    +operation()
}

class ConcreteCreator {
    +factory_method()
}

Creator <|.. ConcreteCreator : Extends
Product <|.. ConcreteProduct : Extends
ConcreteCreator -> ConcreteProduct : Create 
note left of ConcreteCreator : return new ConcreteProduct
note left of Creator : product = FactoryMethod()


@enduml

PlantUML version 1.2020.02(Sun Mar 01 11:22:07 CET 2020)
(GPL source distribution)
Java Runtime: Java(TM) SE Runtime Environment
JVM: Java HotSpot(TM) 64-Bit Server VM
Java Version: 19.0.1+10-21
Operating System: Linux
Default Encoding: UTF-8
Language: en
Country: US
--></g></svg>